<?xml version="1.0" encoding="UTF-8"?>
<svg id="Layer_1" data-name="Layer 1" xmlns="http://www.w3.org/2000/svg" viewBox="0 0 1920 1080">
  <defs>
    <style>
      .cls-1 {
        stroke: #fff;
        stroke-miterlimit: 10;
        stroke-width: .25px;
      }

      .cls-1, .cls-2 {
        fill: #0e3754;
      }
    </style>
  </defs>
  <g>
    <path class="cls-2" d="M78.77,386.44v386.1c0,12.9-10.13,23.03-23.03,23.03-11.98,0-23.04-11.06-23.04-23.03v-446.92c0-12.9,11.06-23.03,22.12-23.03,13.82,0,20.27,2.77,24.88,9.21,61.73,82.01,210.09,267.23,311.46,399.92v-386.1c0-12.9,11.05-23.03,23.03-23.03,12.9,0,23.03,10.13,23.03,23.03v446.92c0,12.9-10.13,23.03-22.11,23.03-12.9,0-20.27-2.77-24.88-9.21-84.77-113.34-228.52-293.03-311.46-399.92Z"/>
    <path class="cls-2" d="M1209.15,348.66h-172.31c-11.98,0-23.04-11.06-23.04-23.04,0-12.9,11.06-23.03,23.04-23.03h394.39c12.9,0,23.03,10.13,23.03,23.03,0,11.98-10.13,23.04-23.03,23.04h-176v423.88c0,12.9-10.14,23.03-23.04,23.03-11.98,0-23.03-11.06-23.03-23.03v-423.88Z"/>
    <path class="cls-2" d="M1529.22,552.31c0,116.11,77.41,205.49,211.02,205.49,44.23,0,82.93-9.21,114.26-24.88,2.77-1.84,6.45-2.77,10.14-2.77,12.9,0,23.03,9.22,23.03,23.04,0,8.29-4.61,16.59-12.9,20.27-36.85,19.35-82.93,30.41-134.53,30.41-163.09,0-257.09-109.65-257.09-251.56,0-154.8,117.03-258.01,251.56-258.01,53.45,0,103.21,11.06,136.37,29.49,7.37,4.61,11.98,11.98,11.98,20.27,0,11.05-9.21,23.03-23.03,23.03-3.69,0-7.37-.92-11.06-2.76-27.64-14.75-70.03-23.96-114.26-23.96-110.57,0-205.49,84.77-205.49,211.93Z"/>
  </g>
  <g>
    <path class="cls-1" d="M630.85,900.29h-38.5c-2.68,0-5.15-2.48-5.15-5.15,0-2.88,2.47-5.14,5.15-5.14h88.11c2.88,0,5.14,2.26,5.14,5.14,0,2.67-2.26,5.15-5.14,5.15h-39.32v94.7c0,2.88-2.26,5.14-5.15,5.14-2.67,0-5.14-2.47-5.14-5.14v-94.7Z"/>
    <path class="cls-1" d="M711.51,895.14c0-2.67,2.06-5.14,4.53-5.14h57.65c2.88,0,5.14,2.26,5.14,5.14,0,2.67-2.26,5.15-5.14,5.15h-51.88v35.82h43.02c2.89,0,5.15,2.26,5.15,5.14,0,2.67-2.26,5.15-5.15,5.15h-43.02v43.43h52.29c2.88,0,5.14,2.26,5.14,5.15,0,2.67-2.26,5.14-5.14,5.14h-57.44c-2.68,0-5.15-2.47-5.15-5.14v-99.85Z"/>
    <path class="cls-1" d="M809.55,945.79c0,25.94,17.29,45.91,47.15,45.91,9.88,0,18.53-2.06,25.52-5.55.62-.42,1.44-.62,2.27-.62,2.88,0,5.14,2.06,5.14,5.15,0,1.85-1.03,3.7-2.88,4.53-8.24,4.32-18.53,6.79-30.06,6.79-36.44,0-57.44-24.5-57.44-56.21,0-34.58,26.15-57.64,56.2-57.64,11.94,0,23.06,2.47,30.47,6.59,1.65,1.03,2.67,2.67,2.67,4.53,0,2.47-2.06,5.14-5.14,5.14-.82,0-1.65-.21-2.47-.62-6.18-3.29-15.65-5.35-25.53-5.35-24.7,0-45.91,18.94-45.91,47.35Z"/>
    <path class="cls-1" d="M998.1,946.61h-68.97v48.38c0,2.88-2.26,5.14-5.14,5.14-2.68,0-5.15-2.47-5.15-5.14v-99.85c0-2.88,2.47-5.14,5.15-5.14,2.88,0,5.14,2.26,5.14,5.14v41.18h68.97v-41.18c0-2.88,2.47-5.14,5.15-5.14,2.88,0,5.14,2.26,5.14,5.14v99.85c0,2.88-2.26,5.14-5.14,5.14-2.68,0-5.15-2.47-5.15-5.14v-48.38Z"/>
    <path class="cls-1" d="M1057.11,908.73v86.27c0,2.88-2.26,5.14-5.14,5.14-2.68,0-5.15-2.47-5.15-5.14v-99.85c0-2.88,2.47-5.14,4.94-5.14,3.09,0,4.53.62,5.56,2.06,13.79,18.32,46.94,59.7,69.59,89.35v-86.26c0-2.88,2.47-5.14,5.14-5.14,2.88,0,5.14,2.26,5.14,5.14v99.85c0,2.88-2.26,5.14-4.94,5.14-2.88,0-4.53-.62-5.55-2.06-18.94-25.32-51.06-65.47-69.59-89.35Z"/>
    <path class="cls-1" d="M1222.59,1001.99c-31.5,0-53.73-24.7-53.73-56.21,0-34.38,21.82-57.64,53.73-57.64,29.23,0,52.91,23.27,52.91,57.03s-19.56,56.82-52.91,56.82ZM1222.59,991.7c27.18,0,42.62-20.58,42.62-46.53s-18.74-46.73-42.62-46.73c-26.15,0-43.44,19.56-43.44,47.35,0,25.33,17.7,45.91,43.44,45.91Z"/>
    <path class="cls-1" d="M1307.25,994.99v-99.85c0-2.88,2.47-5.14,5.15-5.14,2.88,0,5.14,2.26,5.14,5.14v94.7h50.65c2.88,0,5.14,2.26,5.14,5.15,0,2.67-2.26,5.14-5.14,5.14h-55.79c-2.68,0-5.15-2.47-5.15-5.14Z"/>
    <path class="cls-1" d="M1440.7,1001.99c-31.5,0-53.73-24.7-53.73-56.21,0-34.38,21.82-57.64,53.73-57.64,29.24,0,52.91,23.27,52.91,57.03s-19.56,56.82-52.91,56.82ZM1440.7,991.7c27.18,0,42.62-20.58,42.62-46.53s-18.74-46.73-42.62-46.73c-26.15,0-43.44,19.56-43.44,47.35,0,25.33,17.7,45.91,43.44,45.91Z"/>
    <path class="cls-1" d="M1518.6,945.79c0-34.58,23.88-57.64,56.41-57.64,12.15,0,22.65,2.67,31.91,5.97,2.06.82,3.29,2.47,3.29,4.73,0,2.67-1.85,5.14-5.14,5.14-.62,0-1.23-.21-1.85-.41-8.02-3.09-17.29-5.14-28.21-5.14-26.76,0-46.12,18.94-46.12,47.35,0,25.53,16.68,45.91,45.5,45.91,13.38,0,23.47-3.09,31.91-7.82v-29.85h-28.62c-2.68,0-5.15-2.47-5.15-5.14,0-2.89,2.47-5.15,5.15-5.15h31.5c5.14,0,7.41,1.24,7.41,5.15v37.06c0,2.26-1.03,4.11-2.67,5.14-10.08,6.38-22.44,10.91-39.53,10.91-35.41,0-55.79-24.91-55.79-56.21Z"/>
    <path class="cls-1" d="M1656.91,1000.14c-2.67,0-5.14-2.47-5.14-5.14v-99.85c0-2.88,2.47-5.14,5.14-5.14,2.88,0,5.14,2.26,5.14,5.14v99.85c0,2.88-2.26,5.14-5.14,5.14Z"/>
    <path class="cls-1" d="M1700.72,895.14c0-2.67,2.06-5.14,4.53-5.14h57.65c2.88,0,5.14,2.26,5.14,5.14,0,2.67-2.26,5.15-5.14,5.15h-51.88v35.82h43.02c2.89,0,5.15,2.26,5.15,5.14,0,2.67-2.26,5.15-5.15,5.15h-43.02v43.43h52.29c2.88,0,5.14,2.26,5.14,5.15,0,2.67-2.26,5.14-5.14,5.14h-57.44c-2.68,0-5.15-2.47-5.15-5.14v-99.85Z"/>
    <path class="cls-1" d="M1806.7,916.14c0,8.85,5.97,16.06,28.21,21.2,29.44,6.79,37.67,18.94,37.67,34.38s-10.7,30.27-38.91,30.27c-13.18,0-25.74-3.09-37.26-9.47-1.65-1.03-2.68-2.68-2.68-4.54,0-2.47,2.06-5.14,5.15-5.14.82,0,1.65.21,2.47.62,9.88,5.56,20.79,8.24,32.32,8.24,18.73,0,28.62-8.85,28.62-19.97s-8.65-18.94-29.44-24.09c-29.23-7.2-36.44-17.91-36.44-32.32,0-12.97,11.53-26.56,33.15-26.56,15.03,0,22.44,2.47,32.73,6.59,2.06.83,3.29,2.68,3.29,4.73,0,2.68-2.47,5.15-5.14,5.15-.62,0-1.24-.21-4.73-1.65-6.59-2.67-13.59-4.53-26.15-4.53-14,0-22.86,8.24-22.86,17.09Z"/>
  </g>
  <g>
    <path class="cls-2" d="M516.63,824.29l-37.89,49.59H89.24c-7.21-16.41-23.56-27.91-42.64-27.91-25.74,0-46.6,20.87-46.6,46.6s20.87,46.6,46.6,46.6c16.61,0,31.08-8.75,39.34-21.83h270.82c-17.44,26.34-45.14,58.18-74,60.02h-67.51c-7.83-14.73-23.15-24.87-40.99-24.87-25.74,0-46.6,20.87-46.6,46.6s20.87,46.6,46.6,46.6c17.85,0,33.16-10.15,40.99-24.88l68.86-.03c65.18-4.09,109.89-78.21,123.28-103.46h82.08c6.77,0,13.16-3.16,17.27-8.54l64.58-84.53h-54.71Z"/>
    <path class="cls-2" d="M1873.4,149.67c-17.84,0-33.16,10.14-40.99,24.87h-594.4c19.5-36.15,47.54-71.92,61.62-71.92h323.67c7.83,14.73,23.15,24.87,40.99,24.87,25.74,0,46.6-20.87,46.6-46.6s-20.87-46.6-46.6-46.6c-17.84,0-33.16,10.14-40.99,24.87h-323.67c-51.03,0-95.08,83.72-107.38,109.38-.93,1.95-1.45,3.98-1.77,6.01h-189.31c-6.95,0-13.48,3.32-17.57,8.94l-65.86,90.4h53.79l40.7-55.86h820.17c7.83,14.72,23.15,24.86,40.99,24.86,25.74,0,46.6-20.87,46.6-46.6s-20.87-46.6-46.6-46.6Z"/>
    <path class="cls-2" d="M777.44,542.1l120.82-167.65,52.36-71.87h-54.15l-32.84,45.57-25.8,35.41.18.13-89.84,124.65-173.62-200.23c-7.88-9.07-21.59-10.05-30.67-2.18-9.07,7.87-10.04,21.6-2.18,30.67l180.35,207.98-137.62,190.96-45.86,60.02h55.7c.9-.83,1.75-1.75,2.5-2.79l154.54-214.43,181.04,208.79c4.3,4.95,10.35,7.49,16.43,7.49,5.05,0,10.12-1.75,14.24-5.31,9.07-7.87,10.04-21.6,2.18-30.67l-187.77-216.54Z"/>
  </g>
</svg>